<svg xmlns="http://www.w3.org/2000/svg" viewBox="0 0 101 101.3"><defs><style>.cls-1{opacity:0.5;}.cls-2{fill:none;}.cls-3{fill:#896b37;}.cls-4{fill:#b7892c;}</style></defs><title>Asset 8</title><g id="Layer_2" data-name="Layer 2"><g id="Layer_1-2" data-name="Layer 1"><g class="cls-1"><rect class="cls-2" width="101" height="101.3"/><polygon class="cls-3" points="101 93.9 101 94.77 90.65 90.48 89.33 89.93 86.71 88.85 85.4 88.3 61.2 78.27 61.61 77.41 101 93.9"/><polygon class="cls-4" points="101 91.73 101 93.9 61.61 77.41 62.47 75.6 101 91.73"/><polygon class="cls-3" points="101 90.43 101 91.73 62.47 75.6 62.93 74.65 83.21 83.06 84.53 83.6 87.14 84.68 88.47 85.24 101 90.43"/><polygon class="cls-3" points="101 50.63 78.59 61.42 78.2 60.49 98.65 50.65 98.69 50.63 98.57 50.63 78.13 40.8 78.12 40.8 74.77 39.19 74.83 39.06 74.55 38.93 65.72 34.77 61.95 27.02 61.92 27.03 61.91 27.02 62.85 26.64 66.34 34.03 74.89 38.13 75.79 38.57 75.8 38.57 77.6 39.44 78.51 39.88 100.88 50.63 101 50.63"/><polygon class="cls-3" points="100.92 9.57 100.92 10.85 88.42 16.05 89.05 14.53 89.06 14.53 100.92 9.57"/><polygon class="cls-4" points="100.92 7.39 100.92 9.57 89.06 14.53 90.14 11.91 100.15 7.72 100.92 7.39"/><polygon class="cls-3" points="100.92 6.52 100.92 7.39 100.15 7.72 90.15 11.9 90.6 10.8 100.92 6.52"/><polygon class="cls-4" points="98.65 50.65 78.2 60.49 77.44 58.63 94.02 50.65 94.03 50.65 94.06 50.63 93.95 50.63 77.41 42.68 76.45 42.22 76.21 42.1 73.95 41.02 73.95 41.01 73.74 40.91 64.09 36.27 60.11 27.9 60.06 27.8 61.92 27.03 61.92 27.04 65.59 34.77 74.5 39.06 74.51 39.06 74.77 39.19 78.12 40.8 78.13 40.8 98.57 50.63 98.61 50.65 98.65 50.65"/><polygon class="cls-3" points="90.65 90.48 95.17 101.3 94.1 101.3 94.09 101.29 89.33 89.93 90.65 90.48"/><polygon class="cls-3" points="95.09 0 90.6 10.8 90.57 10.81 90.12 11.91 90.12 11.93 89.02 14.54 89.03 14.54 88.39 16.06 88.42 16.05 78.51 39.87 77.6 39.43 89.25 11.36 89.26 11.36 94.02 0 95.09 0"/><polygon class="cls-4" points="89.33 89.93 94.09 101.29 91.93 101.29 86.71 88.85 89.33 89.93"/><polygon class="cls-4" points="94.02 0 89.26 11.36 89.25 11.36 77.6 39.43 75.8 38.57 75.79 38.57 91.85 0 94.02 0"/><polygon class="cls-3" points="94.02 50.65 77.44 58.63 77.05 57.71 91.72 50.65 91.68 50.65 76.98 43.58 76.98 43.57 76.07 43.14 76.07 43.15 74.27 42.28 73.36 41.84 73.35 41.84 73.35 41.83 63.34 37.02 59.14 28.17 60.06 27.8 60.11 27.9 64 36.3 76.21 42.1 76.45 42.22 76.45 42.23 77.41 42.68 93.95 50.63 93.99 50.65 94.02 50.65"/><polygon class="cls-3" points="91.93 101.29 91.93 101.3 90.83 101.3 85.4 88.3 86.71 88.85 91.93 101.29"/><polygon class="cls-3" points="91.85 0 75.79 38.57 74.89 38.13 83.13 18.23 83.14 18.23 83.75 16.75 90.75 0 91.85 0"/><polygon class="cls-3" points="78.59 61.42 88.47 85.24 87.14 84.68 72.88 50.65 72.87 50.63 72.86 50.6 76.07 43.15 76.07 43.14 76.98 43.58 74.05 50.64 77.43 58.63 77.44 58.63 78.2 60.49 78.58 61.42 78.59 61.42"/><polygon class="cls-4" points="72.88 50.65 87.14 84.68 84.53 83.6 75.54 61.92 75.5 61.8 75.48 61.8 74.33 59.02 74.31 59.03 70.79 50.65 70.86 50.65 70.85 50.63 70.78 50.63 74.27 42.28 76.07 43.15 72.86 50.6 72.87 50.63 72.88 50.65"/><polygon class="cls-3" points="85.31 12.99 84.83 14.13 50.47 28.46 50.47 28.45 50.45 28.45 50.45 28.46 43.08 25.44 43.5 24.55 50.45 27.43 50.47 27.43 57.42 24.54 57.42 24.55 58.35 24.17 60.2 23.4 61.12 23.02 85.31 12.99"/><polygon class="cls-4" points="84.83 14.13 83.75 16.75 50.47 30.68 50.47 30.67 50.45 30.67 50.45 30.68 42.23 27.24 43.08 25.44 50.45 28.46 50.45 28.45 50.47 28.45 50.47 28.46 84.83 14.13"/><polygon class="cls-3" points="75.54 61.92 84.53 83.6 83.21 83.06 74.96 63.15 74.63 62.36 74.58 62.23 73.81 60.38 73.43 59.46 74.31 59.03 75.48 61.8 75.54 61.92"/><polygon class="cls-3" points="83.75 16.75 83.13 18.23 61.91 26.99 50.47 31.71 41.78 28.17 42.23 27.24 50.45 30.68 50.45 30.67 50.47 30.67 50.47 30.68 83.75 16.75"/><polygon class="cls-3" points="74.63 62.36 74.96 63.15 66.42 67.27 62.93 74.65 62.47 75.6 61.61 77.41 61.2 78.27 50.55 100.71 50.53 100.71 39.88 78.27 40.8 77.89 50.51 98.69 50.53 98.76 50.57 98.69 50.57 98.68 50.59 98.63 61.99 74.27 61.99 74.26 62.03 74.27 65.8 66.51 74.63 62.36"/><polygon class="cls-4" points="73.81 60.38 74.58 62.23 65.67 66.51 61.99 74.25 61.99 74.26 61.99 74.27 59.09 80.44 60.28 77.89 50.55 98.61 50.53 98.6 40.8 77.89 42.65 77.12 50.53 93.94 50.57 93.86 63.87 65.66 64.17 65.02 64.81 64.71 73.32 60.61 73.81 60.38"/><polygon class="cls-3" points="70.79 50.65 74.31 59.03 73.43 59.46 69.78 50.65 69.78 50.65 69.78 50.63 69.75 50.6 69.73 50.59 73.35 41.84 73.36 41.84 74.27 42.28 70.78 50.63 70.77 50.65 70.79 50.65"/><polygon class="cls-3" points="73.43 59.46 73.81 60.38 73.32 60.61 73.09 60.72 64.08 64.99 50.53 93.84 42.65 77.12 43.58 76.73 43.58 76.74 50.53 91.62 57.5 76.74 57.5 76.73 57.92 75.86 57.92 75.85 58.77 74.05 63.42 64.27 73.43 59.46"/><polygon class="cls-3" points="50.47 0.57 61.12 23.02 60.2 23.39 50.49 2.61 50.47 2.54 50.43 2.61 50.43 2.62 39.66 25.63 39.01 27.02 39.01 27.04 38.97 27.02 35.2 34.77 26.37 38.93 26.04 38.13 34.58 34.03 38.07 26.64 38.53 25.69 39.39 23.89 39.8 23.02 50.45 0.57 50.47 0.57"/><polygon class="cls-4" points="41.89 20.91 48.67 6.5 50.47 2.7 60.2 23.39 58.35 24.17 50.47 7.34 37.13 35.63 36.83 36.27 27.19 40.91 26.42 39.06 35.33 34.77 39.01 27.04 39.01 27.02 39.66 25.63 41.89 20.91"/><polygon class="cls-3" points="59.21 73.12 58.77 74.05 50.55 70.61 50.55 70.62 50.53 70.62 50.52 70.61 17.25 84.53 17.87 83.06 41.87 73.14 50.52 69.58 50.53 69.59 50.55 69.59 50.55 69.58 59.21 73.12"/><polygon class="cls-4" points="58.77 74.05 57.92 75.85 50.55 72.83 50.53 72.84 50.52 72.84 50.52 72.83 43.16 75.85 43.16 75.86 16.16 87.16 17.25 84.55 50.52 70.61 50.53 70.62 50.55 70.62 50.55 70.61 58.77 74.05"/><polygon class="cls-3" points="50.47 7.44 58.35 24.17 57.42 24.54 50.47 9.66 41.75 28.16 37.58 37.02 27.57 41.83 27.55 41.78 27.19 40.91 36.92 36.3 50.47 7.44"/><polygon class="cls-3" points="57.92 75.86 57.5 76.73 57.5 76.74 50.55 73.87 50.55 73.88 50.53 73.88 50.52 73.87 43.58 76.74 43.58 76.73 42.65 77.12 39.88 78.27 15.69 88.29 16.16 87.16 50.52 72.84 50.53 72.84 50.53 72.85 50.55 72.85 50.55 72.84 57.92 75.86"/><polygon class="cls-3" points="37.66 64.27 41.86 73.12 40.94 73.5 40.88 73.38 37 64.99 27.66 60.57 27.62 60.55 27.37 60.43 27.26 60.38 27.64 59.46 27.65 59.46 37.66 64.27"/><polygon class="cls-4" points="40.88 73.38 40.94 73.5 39.08 74.25 35.41 66.51 26.49 62.23 26.23 62.11 26.23 62.1 25.59 61.8 22.88 60.49 22.87 60.49 2.43 50.65 2.39 50.63 2.35 50.63 22.8 40.8 23.56 42.65 6.98 50.63 6.97 50.63 6.94 50.65 7.05 50.65 23.64 58.63 24.55 59.07 26.36 59.94 27.26 60.38 27.37 60.43 27.62 60.55 27.66 60.57 36.91 65.02 40.88 73.38"/><polygon class="cls-3" points="39.8 23.02 39.39 23.89 10.8 11.91 0.77 7.72 0 7.39 0 6.52 10.35 10.81 11.67 11.36 14.29 12.45 15.61 12.99 39.8 23.02"/><polygon class="cls-4" points="39.39 23.89 38.53 25.69 38.48 25.67 17.18 16.75 0 9.57 0 7.39 0.77 7.72 10.8 11.93 39.39 23.89"/><polygon class="cls-3" points="39.08 74.26 39.08 74.27 38.15 74.65 34.66 67.27 26.11 63.15 25.21 62.72 25.2 62.72 23.4 61.85 22.49 61.42 0.12 50.65 0 50.65 22.41 39.88 22.8 40.8 2.35 50.63 2.31 50.65 2.43 50.65 22.87 60.49 22.88 60.49 23.78 60.93 25.59 61.8 26.23 62.1 26.23 62.11 26.17 62.23 26.44 62.36 35.28 66.51 39.04 74.27 39.08 74.26"/><polygon class="cls-3" points="38.53 25.69 38.07 26.64 17.79 18.24 17.79 18.23 16.75 17.8 13.87 16.6 13.86 16.6 0 10.85 0 9.57 17.18 16.75 38.48 25.67 38.53 25.69"/><polygon class="cls-3" points="31.25 50.68 31.27 50.63 31.3 50.63 27.65 59.46 27.64 59.46 26.73 59.01 30.22 50.65 30.21 50.65 30.22 50.63 30.14 50.63 29.78 49.75 16.48 17.69 16.75 17.8 17.79 18.23 17.79 18.24 26.04 38.13 26.37 38.93 26.42 39.06 27.19 40.91 27.18 40.91 27.18 40.92 27.55 41.78 27.57 41.83 31.27 50.63 31.21 50.63 31.25 50.68"/><polygon class="cls-4" points="30.21 50.65 26.73 59.01 24.93 58.15 27.68 50.65 27.67 50.63 13.86 16.6 13.87 16.6 16.48 17.69 26.66 42.28 26.66 42.28 29.78 49.75 30.14 50.63 30.15 50.65 30.21 50.65"/><polygon class="cls-3" points="13.86 16.6 27.67 50.63 24.93 58.15 24.03 57.71 26.78 50.65 23.95 43.58 23.79 43.21 23.72 43.03 23.57 42.65 23.56 42.65 22.8 40.8 22.41 39.88 12.53 16.06 13.86 16.6"/><polygon class="cls-3" points="27.64 59.46 27.26 60.38 26.36 59.94 24.55 59.07 23.64 58.63 7.05 50.65 7.01 50.63 6.98 50.63 23.56 42.65 23.72 43.03 23.79 43.21 23.94 43.58 9.28 50.63 9.32 50.63 24.02 57.71 24.03 57.71 24.93 58.15 26.73 59.02 27.64 59.46"/><polygon class="cls-3" points="26.11 63.16 17.87 83.06 17.86 83.06 17.25 84.53 17.25 84.55 10.25 101.3 9.15 101.3 9.15 101.29 25.21 62.72 26.11 63.16"/><polygon class="cls-4" points="25.2 62.72 9.15 101.29 6.98 101.29 11.74 89.93 11.75 89.93 23.36 61.95 23.4 61.85 25.2 62.72"/><polygon class="cls-3" points="23.4 61.85 23.36 61.95 6.98 101.29 6.98 101.3 5.91 101.3 10.4 90.49 10.43 90.48 10.88 89.37 11.98 86.75 11.97 86.75 12.61 85.24 12.58 85.25 22.49 61.42 23.4 61.85"/><polygon class="cls-3" points="10.17 0 15.61 12.99 14.29 12.45 9.07 0 10.17 0"/><polygon class="cls-4" points="9.07 0 14.29 12.45 11.67 11.36 6.9 0 9.07 0"/><polygon class="cls-3" points="12.58 85.25 11.96 86.76 0.08 91.73 0.08 90.43 12.58 85.25"/><polygon class="cls-4" points="11.96 86.76 10.86 89.38 0.08 93.9 0.08 91.73 11.96 86.76"/><polygon class="cls-3" points="6.9 0 11.67 11.36 10.35 10.81 5.83 0 6.9 0"/><polygon class="cls-3" points="10.86 89.38 10.4 90.49 0.08 94.77 0.08 93.9 10.86 89.38"/></g></g></g></svg>